<svg width="24" height="24" viewBox="0 0 24 24" fill="none" xmlns="http://www.w3.org/2000/svg">
<path d="M24 12.0663C23.9984 9.75938 23.3401 7.50118 22.1029 5.55894C20.8658 3.6167 19.1015 2.07173 17.019 1.10685C14.9365 0.141975 12.6228 -0.202414 10.3518 0.114438C8.08087 0.431289 5.94763 1.39612 4.20459 2.89475C2.46154 4.39338 1.18163 6.36308 0.516338 8.57075C-0.148959 10.7784 -0.1718 13.1317 0.450518 15.352C1.07284 17.5723 2.31426 19.5668 4.02789 21.0994C5.74152 22.632 7.85561 23.6386 10.12 24V15.5478H7.12V12.0663H10.12V9.39986C10.12 6.38122 11.92 4.70085 14.66 4.70085C15.5581 4.71395 16.4539 4.79468 17.34 4.94234V7.96098H15.83C15.5719 7.92646 15.3094 7.95102 15.062 8.03281C14.8146 8.11461 14.5888 8.25153 14.4014 8.43337C14.2139 8.61521 14.0697 8.83729 13.9794 9.08303C13.8891 9.32878 13.8552 9.59186 13.88 9.85266V12.1166H17.2L16.67 15.5981H13.88V24C16.7029 23.5494 19.2732 22.0999 21.1284 19.9121C22.9837 17.7244 24.0019 14.9422 24 12.0663Z" fill="#391207"/>
</svg>
