<svg width="25" height="25" viewBox="0 0 25 25" fill="none" xmlns="http://www.w3.org/2000/svg">
<path d="M17.6003 0.75H7.89973C3.95735 0.75 0.75 3.95735 0.75 7.89973V17.6003C0.75 21.5426 3.95735 24.75 7.89973 24.75H17.6003C21.5426 24.75 24.75 21.5426 24.75 17.6003V7.89973C24.75 3.95735 21.5426 0.75 17.6003 0.75ZM22.3356 17.6003C22.3356 20.2155 20.2155 22.3356 17.6003 22.3356H7.89973C5.2845 22.3356 3.1644 20.2155 3.1644 17.6003V7.89973C3.1644 5.28446 5.2845 3.1644 7.89973 3.1644H17.6003C20.2155 3.1644 22.3356 5.28446 22.3356 7.89973V17.6003Z" fill="url(#paint0_linear_64_8225)"/>
<path d="M17.6003 0.75H7.89973C3.95735 0.75 0.75 3.95735 0.75 7.89973V17.6003C0.75 21.5426 3.95735 24.75 7.89973 24.75H17.6003C21.5426 24.75 24.75 21.5426 24.75 17.6003V7.89973C24.75 3.95735 21.5426 0.75 17.6003 0.75ZM22.3356 17.6003C22.3356 20.2155 20.2155 22.3356 17.6003 22.3356H7.89973C5.2845 22.3356 3.1644 20.2155 3.1644 17.6003V7.89973C3.1644 5.28446 5.2845 3.1644 7.89973 3.1644H17.6003C20.2155 3.1644 22.3356 5.28446 22.3356 7.89973V17.6003Z" fill="#391207"/>
<path d="M12.7502 6.54297C9.32754 6.54297 6.54297 9.32754 6.54297 12.7502C6.54297 16.1728 9.32754 18.9574 12.7502 18.9574C16.1729 18.9574 18.9575 16.1729 18.9575 12.7502C18.9575 9.32749 16.1729 6.54297 12.7502 6.54297ZM12.7502 16.5431C10.6555 16.5431 8.95737 14.845 8.95737 12.7502C8.95737 10.6555 10.6555 8.95737 12.7502 8.95737C14.845 8.95737 16.5431 10.6555 16.5431 12.7502C16.5431 14.8449 14.8449 16.5431 12.7502 16.5431Z" fill="url(#paint1_linear_64_8225)"/>
<path d="M12.7502 6.54297C9.32754 6.54297 6.54297 9.32754 6.54297 12.7502C6.54297 16.1728 9.32754 18.9574 12.7502 18.9574C16.1729 18.9574 18.9575 16.1729 18.9575 12.7502C18.9575 9.32749 16.1729 6.54297 12.7502 6.54297ZM12.7502 16.5431C10.6555 16.5431 8.95737 14.845 8.95737 12.7502C8.95737 10.6555 10.6555 8.95737 12.7502 8.95737C14.845 8.95737 16.5431 10.6555 16.5431 12.7502C16.5431 14.8449 14.8449 16.5431 12.7502 16.5431Z" fill="#391207"/>
<path d="M18.9679 8.07682C19.7893 8.07682 20.4552 7.4109 20.4552 6.58944C20.4552 5.76798 19.7893 5.10205 18.9679 5.10205C18.1464 5.10205 17.4805 5.76798 17.4805 6.58944C17.4805 7.4109 18.1464 8.07682 18.9679 8.07682Z" fill="url(#paint2_linear_64_8225)"/>
<path d="M18.9679 8.07682C19.7893 8.07682 20.4552 7.4109 20.4552 6.58944C20.4552 5.76798 19.7893 5.10205 18.9679 5.10205C18.1464 5.10205 17.4805 5.76798 17.4805 6.58944C17.4805 7.4109 18.1464 8.07682 18.9679 8.07682Z" fill="#391207"/>
<defs>
<linearGradient id="paint0_linear_64_8225" x1="12.75" y1="158.704" x2="12.75" y2="-32.857" gradientUnits="userSpaceOnUse">
<stop stop-color="#E09B3D"/>
<stop offset="0.3" stop-color="#C74C4D"/>
<stop offset="0.6" stop-color="#C21975"/>
<stop offset="1" stop-color="#7024C4"/>
</linearGradient>
<linearGradient id="paint1_linear_64_8225" x1="12.7502" y1="88.2476" x2="12.7502" y2="-10.8409" gradientUnits="userSpaceOnUse">
<stop stop-color="#E09B3D"/>
<stop offset="0.3" stop-color="#C74C4D"/>
<stop offset="0.6" stop-color="#C21975"/>
<stop offset="1" stop-color="#7024C4"/>
</linearGradient>
<linearGradient id="paint2_linear_64_8225" x1="18.9679" y1="24.6802" x2="18.9679" y2="0.936501" gradientUnits="userSpaceOnUse">
<stop stop-color="#E09B3D"/>
<stop offset="0.3" stop-color="#C74C4D"/>
<stop offset="0.6" stop-color="#C21975"/>
<stop offset="1" stop-color="#7024C4"/>
</linearGradient>
</defs>
</svg>
